G04 #@! TF.FileFunction,Legend,Bot*
%FSLAX46Y46*%
G04 Gerber Fmt 4.6, Leading zero omitted, Abs format (unit mm)*
G04 Created by KiCad (PCBNEW 4.0.4+e1-6308~48~ubuntu15.10.1-stable) date Sun Apr 23 18:13:47 2017*
%MOMM*%
%LPD*%
G01*
G04 APERTURE LIST*
%ADD10C,0.100000*%
%ADD11C,0.300000*%
%ADD12C,0.150000*%
G04 APERTURE END LIST*
D10*
D11*
X136751428Y-106227143D02*
X135608571Y-106227143D01*
X136180000Y-106798571D02*
X136180000Y-105655714D01*
X116861428Y-106337143D02*
X115718571Y-106337143D01*
X116290000Y-106908571D02*
X116290000Y-105765714D01*
D12*
X125314285Y-112728571D02*
X125171428Y-112776190D01*
X125123809Y-112823810D01*
X125076190Y-112919048D01*
X125076190Y-113061905D01*
X125123809Y-113157143D01*
X125171428Y-113204762D01*
X125266666Y-113252381D01*
X125647619Y-113252381D01*
X125647619Y-112252381D01*
X125314285Y-112252381D01*
X125219047Y-112300000D01*
X125171428Y-112347619D01*
X125123809Y-112442857D01*
X125123809Y-112538095D01*
X125171428Y-112633333D01*
X125219047Y-112680952D01*
X125314285Y-112728571D01*
X125647619Y-112728571D01*
X124695238Y-112966667D02*
X124219047Y-112966667D01*
X124790476Y-113252381D02*
X124457143Y-112252381D01*
X124123809Y-113252381D01*
X123933333Y-112252381D02*
X123361904Y-112252381D01*
X123647619Y-113252381D02*
X123647619Y-112252381D01*
X122504761Y-113252381D02*
X123076190Y-113252381D01*
X122790476Y-113252381D02*
X122790476Y-112252381D01*
X122885714Y-112395238D01*
X122980952Y-112490476D01*
X123076190Y-112538095D01*
M02*
