G04 #@! TF.FileFunction,Soldermask,Top*
%FSLAX46Y46*%
G04 Gerber Fmt 4.6, Leading zero omitted, Abs format (unit mm)*
G04 Created by KiCad (PCBNEW 4.0.4+e1-6308~48~ubuntu15.10.1-stable) date Sun Apr 23 18:13:47 2017*
%MOMM*%
%LPD*%
G01*
G04 APERTURE LIST*
%ADD10C,0.100000*%
%ADD11R,1.650000X1.900000*%
%ADD12R,1.900000X1.650000*%
%ADD13R,1.400760X1.200100*%
%ADD14C,6.200000*%
%ADD15R,0.999440X1.400760*%
%ADD16R,1.900000X1.700000*%
%ADD17R,1.700000X1.900000*%
%ADD18R,1.830020X0.951180*%
%ADD19R,0.951180X1.830020*%
%ADD20R,2.800000X2.400000*%
%ADD21R,1.600000X1.300000*%
%ADD22R,1.300000X1.600000*%
%ADD23R,1.924000X1.924000*%
%ADD24C,1.924000*%
%ADD25R,2.127200X2.127200*%
%ADD26O,2.127200X2.127200*%
%ADD27R,1.924000X0.908000*%
%ADD28R,2.050000X3.830000*%
%ADD29R,2.940000X2.050000*%
%ADD30C,4.210000*%
G04 APERTURE END LIST*
D10*
D11*
X171500000Y-97450000D03*
X171500000Y-94950000D03*
X171500000Y-92750000D03*
X171500000Y-90250000D03*
X173700000Y-97450000D03*
X173700000Y-94950000D03*
X173700000Y-92750000D03*
X173700000Y-90250000D03*
D12*
X168650000Y-78700000D03*
X166150000Y-78700000D03*
D11*
X155800000Y-95050000D03*
X155800000Y-92550000D03*
X155800000Y-90250000D03*
X155800000Y-87750000D03*
D12*
X167250000Y-68700000D03*
X164750000Y-68700000D03*
D11*
X153600000Y-95150000D03*
X153600000Y-92650000D03*
X153500000Y-90250000D03*
X153500000Y-87750000D03*
X152100000Y-80350000D03*
X152100000Y-77850000D03*
D13*
X173200180Y-100300000D03*
X175399820Y-99347500D03*
X175399820Y-101252500D03*
D14*
X114998000Y-113919000D03*
X114998000Y-64919000D03*
X172998000Y-64919000D03*
X172998000Y-113919000D03*
D15*
X119947500Y-91156640D03*
X120900000Y-89043360D03*
X121852500Y-91156640D03*
X125347500Y-91156640D03*
X126300000Y-89043360D03*
X127252500Y-91156640D03*
D16*
X157450000Y-116000000D03*
X160150000Y-116000000D03*
X152250000Y-116000000D03*
X154950000Y-116000000D03*
X170250000Y-86200000D03*
X172950000Y-86200000D03*
D17*
X120900000Y-86750000D03*
X120900000Y-84050000D03*
X118500000Y-84050000D03*
X118500000Y-86750000D03*
X126300000Y-86850000D03*
X126300000Y-84150000D03*
X123900000Y-84150000D03*
X123900000Y-86850000D03*
X149800000Y-80350000D03*
X149800000Y-77650000D03*
D16*
X169050000Y-116100000D03*
X166350000Y-116100000D03*
D17*
X168800000Y-99050000D03*
X168800000Y-101750000D03*
D18*
X163910760Y-80580000D03*
X163910760Y-79310000D03*
X163910760Y-78040000D03*
X163910760Y-76770000D03*
X163910760Y-75500000D03*
X163910760Y-74230000D03*
X163910760Y-72960000D03*
X163910760Y-71690000D03*
X163910760Y-70420000D03*
X154289240Y-70420000D03*
X154289240Y-71690000D03*
X154289240Y-72960000D03*
X154289240Y-74230000D03*
X154289240Y-75500000D03*
X154289240Y-76770000D03*
X154289240Y-78040000D03*
X154289240Y-79310000D03*
X154289240Y-80580000D03*
D19*
X118955000Y-79810760D03*
X120225000Y-79810760D03*
X121495000Y-79810760D03*
X122765000Y-79810760D03*
X124035000Y-79810760D03*
X125305000Y-79810760D03*
X126575000Y-79810760D03*
X127845000Y-79810760D03*
X127845000Y-70189240D03*
X126575000Y-70189240D03*
X125305000Y-70189240D03*
X124035000Y-70189240D03*
X122765000Y-70189240D03*
X121495000Y-70189240D03*
X120225000Y-70189240D03*
X118955000Y-70189240D03*
D20*
X167400000Y-75900000D03*
X167400000Y-71900000D03*
D21*
X172000000Y-104400000D03*
X174200000Y-104400000D03*
D22*
X159100000Y-102200000D03*
X159100000Y-100000000D03*
D23*
X172330000Y-109370000D03*
D24*
X172330000Y-106830000D03*
X174870000Y-109370000D03*
X174870000Y-106830000D03*
D18*
X158489240Y-84985000D03*
X158489240Y-86255000D03*
X158489240Y-87525000D03*
X158489240Y-88795000D03*
X158489240Y-90065000D03*
X158489240Y-91335000D03*
X158489240Y-92605000D03*
X158489240Y-93875000D03*
X158489240Y-95145000D03*
X158489240Y-96415000D03*
X168110760Y-96415000D03*
X168110760Y-95145000D03*
X168110760Y-93875000D03*
X168110760Y-92605000D03*
X168110760Y-91335000D03*
X168110760Y-90065000D03*
X168110760Y-88795000D03*
X168110760Y-87525000D03*
X168110760Y-86255000D03*
X168110760Y-84985000D03*
D11*
X115849000Y-76842300D03*
X115849000Y-79342300D03*
D16*
X113293000Y-70434200D03*
X115993000Y-70434200D03*
X113255000Y-72923400D03*
X115955000Y-72923400D03*
D11*
X171100000Y-99750000D03*
X171100000Y-102250000D03*
D25*
X119868000Y-66189000D03*
D26*
X119868000Y-63649000D03*
X122408000Y-66189000D03*
X122408000Y-63649000D03*
X124948000Y-66189000D03*
X124948000Y-63649000D03*
X127488000Y-66189000D03*
X127488000Y-63649000D03*
X130028000Y-66189000D03*
X130028000Y-63649000D03*
X132568000Y-66189000D03*
X132568000Y-63649000D03*
X135108000Y-66189000D03*
X135108000Y-63649000D03*
X137648000Y-66189000D03*
X137648000Y-63649000D03*
X140188000Y-66189000D03*
X140188000Y-63649000D03*
X142728000Y-66189000D03*
X142728000Y-63649000D03*
X145268000Y-66189000D03*
X145268000Y-63649000D03*
X147808000Y-66189000D03*
X147808000Y-63649000D03*
X150348000Y-66189000D03*
X150348000Y-63649000D03*
X152888000Y-66189000D03*
X152888000Y-63649000D03*
X155428000Y-66189000D03*
X155428000Y-63649000D03*
X157968000Y-66189000D03*
X157968000Y-63649000D03*
X160508000Y-66189000D03*
X160508000Y-63649000D03*
X163048000Y-66189000D03*
X163048000Y-63649000D03*
X165588000Y-66189000D03*
X165588000Y-63649000D03*
X168128000Y-66189000D03*
X168128000Y-63649000D03*
D27*
X147200000Y-105000000D03*
X147200000Y-107540000D03*
X153296000Y-107540000D03*
X153296000Y-105000000D03*
X147200000Y-110500000D03*
X147200000Y-113040000D03*
X153296000Y-113040000D03*
X153296000Y-110500000D03*
D28*
X164000000Y-100415000D03*
X164000000Y-114185000D03*
D29*
X159300000Y-110300000D03*
X168700000Y-110300000D03*
X159300000Y-107300000D03*
X168700000Y-107300000D03*
X159300000Y-104300000D03*
X168700000Y-104300000D03*
D24*
X132870000Y-96910000D03*
X135410000Y-96910000D03*
X130330000Y-96910000D03*
X127790000Y-96910000D03*
X132870000Y-114690000D03*
X135410000Y-114690000D03*
X137950000Y-114690000D03*
X130330000Y-114690000D03*
X127790000Y-114690000D03*
X125250000Y-114690000D03*
D30*
X142090200Y-98307000D03*
X142090200Y-113293000D03*
X121109800Y-98307000D03*
X121109800Y-113293000D03*
M02*
