G04 #@! TF.FileFunction,Legend,Top*
%FSLAX46Y46*%
G04 Gerber Fmt 4.6, Leading zero omitted, Abs format (unit mm)*
G04 Created by KiCad (PCBNEW 4.0.4+e1-6308~48~ubuntu15.10.1-stable) date Sun Apr 23 18:13:47 2017*
%MOMM*%
%LPD*%
G01*
G04 APERTURE LIST*
%ADD10C,0.100000*%
%ADD11C,0.300000*%
%ADD12C,0.250000*%
%ADD13C,0.150000*%
%ADD14C,0.078740*%
%ADD15C,0.127000*%
%ADD16C,0.254000*%
G04 APERTURE END LIST*
D10*
D11*
X157100000Y-84935714D02*
X157171428Y-85007143D01*
X157100000Y-85078571D01*
X157028571Y-85007143D01*
X157100000Y-84935714D01*
X157100000Y-85078571D01*
X170500000Y-104135714D02*
X170571428Y-104207143D01*
X170500000Y-104278571D01*
X170428571Y-104207143D01*
X170500000Y-104135714D01*
X170500000Y-104278571D01*
X171000000Y-110935714D02*
X171071428Y-111007143D01*
X171000000Y-111078571D01*
X170928571Y-111007143D01*
X171000000Y-110935714D01*
X171000000Y-111078571D01*
X118000000Y-80835714D02*
X118071428Y-80907143D01*
X118000000Y-80978571D01*
X117928571Y-80907143D01*
X118000000Y-80835714D01*
X118000000Y-80978571D01*
X165100000Y-80535714D02*
X165171428Y-80607143D01*
X165100000Y-80678571D01*
X165028571Y-80607143D01*
X165100000Y-80535714D01*
X165100000Y-80678571D01*
X158300000Y-85035714D02*
X158371428Y-85107143D01*
X158300000Y-85178571D01*
X158228571Y-85107143D01*
X158300000Y-85035714D01*
X158300000Y-85178571D01*
X145700000Y-109235714D02*
X145771428Y-109307143D01*
X145700000Y-109378571D01*
X145628571Y-109307143D01*
X145700000Y-109235714D01*
X145700000Y-109378571D01*
X145700000Y-103835714D02*
X145771428Y-103907143D01*
X145700000Y-103978571D01*
X145628571Y-103907143D01*
X145700000Y-103835714D01*
X145700000Y-103978571D01*
D12*
X138442857Y-70527381D02*
X138109523Y-70051190D01*
X137871428Y-70527381D02*
X137871428Y-69527381D01*
X138252381Y-69527381D01*
X138347619Y-69575000D01*
X138395238Y-69622619D01*
X138442857Y-69717857D01*
X138442857Y-69860714D01*
X138395238Y-69955952D01*
X138347619Y-70003571D01*
X138252381Y-70051190D01*
X137871428Y-70051190D01*
X138871428Y-70527381D02*
X138871428Y-69527381D01*
X139252381Y-69527381D01*
X139347619Y-69575000D01*
X139395238Y-69622619D01*
X139442857Y-69717857D01*
X139442857Y-69860714D01*
X139395238Y-69955952D01*
X139347619Y-70003571D01*
X139252381Y-70051190D01*
X138871428Y-70051190D01*
X139871428Y-70527381D02*
X139871428Y-69860714D01*
X139871428Y-69527381D02*
X139823809Y-69575000D01*
X139871428Y-69622619D01*
X139919047Y-69575000D01*
X139871428Y-69527381D01*
X139871428Y-69622619D01*
X140252380Y-69527381D02*
X140871428Y-69527381D01*
X140538094Y-69908333D01*
X140680952Y-69908333D01*
X140776190Y-69955952D01*
X140823809Y-70003571D01*
X140871428Y-70098810D01*
X140871428Y-70336905D01*
X140823809Y-70432143D01*
X140776190Y-70479762D01*
X140680952Y-70527381D01*
X140395237Y-70527381D01*
X140299999Y-70479762D01*
X140252380Y-70432143D01*
X142061904Y-70527381D02*
X142061904Y-69527381D01*
X142490476Y-70527381D02*
X142490476Y-70003571D01*
X142442857Y-69908333D01*
X142347619Y-69860714D01*
X142204761Y-69860714D01*
X142109523Y-69908333D01*
X142061904Y-69955952D01*
X143395238Y-70527381D02*
X143395238Y-70003571D01*
X143347619Y-69908333D01*
X143252381Y-69860714D01*
X143061904Y-69860714D01*
X142966666Y-69908333D01*
X143395238Y-70479762D02*
X143300000Y-70527381D01*
X143061904Y-70527381D01*
X142966666Y-70479762D01*
X142919047Y-70384524D01*
X142919047Y-70289286D01*
X142966666Y-70194048D01*
X143061904Y-70146429D01*
X143300000Y-70146429D01*
X143395238Y-70098810D01*
X143728571Y-69860714D02*
X144109523Y-69860714D01*
X143871428Y-69527381D02*
X143871428Y-70384524D01*
X143919047Y-70479762D01*
X144014285Y-70527381D01*
X144109523Y-70527381D01*
X131133333Y-72182143D02*
X131085714Y-72229762D01*
X130942857Y-72277381D01*
X130847619Y-72277381D01*
X130704761Y-72229762D01*
X130609523Y-72134524D01*
X130561904Y-72039286D01*
X130514285Y-71848810D01*
X130514285Y-71705952D01*
X130561904Y-71515476D01*
X130609523Y-71420238D01*
X130704761Y-71325000D01*
X130847619Y-71277381D01*
X130942857Y-71277381D01*
X131085714Y-71325000D01*
X131133333Y-71372619D01*
X131704761Y-72277381D02*
X131609523Y-72229762D01*
X131561904Y-72134524D01*
X131561904Y-71277381D01*
X132228571Y-72277381D02*
X132133333Y-72229762D01*
X132085714Y-72182143D01*
X132038095Y-72086905D01*
X132038095Y-71801190D01*
X132085714Y-71705952D01*
X132133333Y-71658333D01*
X132228571Y-71610714D01*
X132371429Y-71610714D01*
X132466667Y-71658333D01*
X132514286Y-71705952D01*
X132561905Y-71801190D01*
X132561905Y-72086905D01*
X132514286Y-72182143D01*
X132466667Y-72229762D01*
X132371429Y-72277381D01*
X132228571Y-72277381D01*
X133419048Y-72229762D02*
X133323810Y-72277381D01*
X133133333Y-72277381D01*
X133038095Y-72229762D01*
X132990476Y-72182143D01*
X132942857Y-72086905D01*
X132942857Y-71801190D01*
X132990476Y-71705952D01*
X133038095Y-71658333D01*
X133133333Y-71610714D01*
X133323810Y-71610714D01*
X133419048Y-71658333D01*
X133847619Y-72277381D02*
X133847619Y-71277381D01*
X133942857Y-71896429D02*
X134228572Y-72277381D01*
X134228572Y-71610714D02*
X133847619Y-71991667D01*
X135371429Y-71229762D02*
X134514286Y-72515476D01*
X136276191Y-72182143D02*
X136228572Y-72229762D01*
X136085715Y-72277381D01*
X135990477Y-72277381D01*
X135847619Y-72229762D01*
X135752381Y-72134524D01*
X135704762Y-72039286D01*
X135657143Y-71848810D01*
X135657143Y-71705952D01*
X135704762Y-71515476D01*
X135752381Y-71420238D01*
X135847619Y-71325000D01*
X135990477Y-71277381D01*
X136085715Y-71277381D01*
X136228572Y-71325000D01*
X136276191Y-71372619D01*
X136657143Y-71991667D02*
X137133334Y-71991667D01*
X136561905Y-72277381D02*
X136895238Y-71277381D01*
X137228572Y-72277381D01*
X137561905Y-72277381D02*
X137561905Y-71277381D01*
X138133334Y-72277381D01*
X138133334Y-71277381D01*
X138609524Y-71896429D02*
X139371429Y-71896429D01*
X139800000Y-71372619D02*
X139847619Y-71325000D01*
X139942857Y-71277381D01*
X140180953Y-71277381D01*
X140276191Y-71325000D01*
X140323810Y-71372619D01*
X140371429Y-71467857D01*
X140371429Y-71563095D01*
X140323810Y-71705952D01*
X139752381Y-72277381D01*
X140371429Y-72277381D01*
X141276191Y-71277381D02*
X140800000Y-71277381D01*
X140752381Y-71753571D01*
X140800000Y-71705952D01*
X140895238Y-71658333D01*
X141133334Y-71658333D01*
X141228572Y-71705952D01*
X141276191Y-71753571D01*
X141323810Y-71848810D01*
X141323810Y-72086905D01*
X141276191Y-72182143D01*
X141228572Y-72229762D01*
X141133334Y-72277381D01*
X140895238Y-72277381D01*
X140800000Y-72229762D01*
X140752381Y-72182143D01*
X142276191Y-72277381D02*
X141704762Y-72277381D01*
X141990476Y-72277381D02*
X141990476Y-71277381D01*
X141895238Y-71420238D01*
X141800000Y-71515476D01*
X141704762Y-71563095D01*
X143180953Y-71277381D02*
X142704762Y-71277381D01*
X142657143Y-71753571D01*
X142704762Y-71705952D01*
X142800000Y-71658333D01*
X143038096Y-71658333D01*
X143133334Y-71705952D01*
X143180953Y-71753571D01*
X143228572Y-71848810D01*
X143228572Y-72086905D01*
X143180953Y-72182143D01*
X143133334Y-72229762D01*
X143038096Y-72277381D01*
X142800000Y-72277381D01*
X142704762Y-72229762D01*
X142657143Y-72182143D01*
X144371429Y-71229762D02*
X143514286Y-72515476D01*
X145276191Y-72277381D02*
X144942857Y-71801190D01*
X144704762Y-72277381D02*
X144704762Y-71277381D01*
X145085715Y-71277381D01*
X145180953Y-71325000D01*
X145228572Y-71372619D01*
X145276191Y-71467857D01*
X145276191Y-71610714D01*
X145228572Y-71705952D01*
X145180953Y-71753571D01*
X145085715Y-71801190D01*
X144704762Y-71801190D01*
X146085715Y-72229762D02*
X145990477Y-72277381D01*
X145800000Y-72277381D01*
X145704762Y-72229762D01*
X145657143Y-72134524D01*
X145657143Y-71753571D01*
X145704762Y-71658333D01*
X145800000Y-71610714D01*
X145990477Y-71610714D01*
X146085715Y-71658333D01*
X146133334Y-71753571D01*
X146133334Y-71848810D01*
X145657143Y-71944048D01*
X146514286Y-72229762D02*
X146609524Y-72277381D01*
X146800000Y-72277381D01*
X146895239Y-72229762D01*
X146942858Y-72134524D01*
X146942858Y-72086905D01*
X146895239Y-71991667D01*
X146800000Y-71944048D01*
X146657143Y-71944048D01*
X146561905Y-71896429D01*
X146514286Y-71801190D01*
X146514286Y-71753571D01*
X146561905Y-71658333D01*
X146657143Y-71610714D01*
X146800000Y-71610714D01*
X146895239Y-71658333D01*
X147752382Y-72229762D02*
X147657144Y-72277381D01*
X147466667Y-72277381D01*
X147371429Y-72229762D01*
X147323810Y-72134524D01*
X147323810Y-71753571D01*
X147371429Y-71658333D01*
X147466667Y-71610714D01*
X147657144Y-71610714D01*
X147752382Y-71658333D01*
X147800001Y-71753571D01*
X147800001Y-71848810D01*
X147323810Y-71944048D01*
X148085715Y-71610714D02*
X148466667Y-71610714D01*
X148228572Y-71277381D02*
X148228572Y-72134524D01*
X148276191Y-72229762D01*
X148371429Y-72277381D01*
X148466667Y-72277381D01*
X149514287Y-71229762D02*
X148657144Y-72515476D01*
X149847620Y-72277381D02*
X149847620Y-71277381D01*
X150323810Y-72277381D02*
X150323810Y-71277381D01*
X150657144Y-71991667D01*
X150990477Y-71277381D01*
X150990477Y-72277381D01*
X151466667Y-71277381D02*
X151466667Y-72086905D01*
X151514286Y-72182143D01*
X151561905Y-72229762D01*
X151657143Y-72277381D01*
X151847620Y-72277381D01*
X151942858Y-72229762D01*
X151990477Y-72182143D01*
X152038096Y-72086905D01*
X152038096Y-71277381D01*
X136014286Y-73027381D02*
X136014286Y-73741667D01*
X135966666Y-73884524D01*
X135871428Y-73979762D01*
X135728571Y-74027381D01*
X135633333Y-74027381D01*
X137061905Y-73932143D02*
X137014286Y-73979762D01*
X136871429Y-74027381D01*
X136776191Y-74027381D01*
X136633333Y-73979762D01*
X136538095Y-73884524D01*
X136490476Y-73789286D01*
X136442857Y-73598810D01*
X136442857Y-73455952D01*
X136490476Y-73265476D01*
X136538095Y-73170238D01*
X136633333Y-73075000D01*
X136776191Y-73027381D01*
X136871429Y-73027381D01*
X137014286Y-73075000D01*
X137061905Y-73122619D01*
X137395238Y-73027381D02*
X137633333Y-74027381D01*
X137823810Y-73313095D01*
X138014286Y-74027381D01*
X138252381Y-73027381D01*
X139347619Y-73741667D02*
X139823810Y-73741667D01*
X139252381Y-74027381D02*
X139585714Y-73027381D01*
X139919048Y-74027381D01*
X140252381Y-73360714D02*
X140252381Y-74360714D01*
X140252381Y-73408333D02*
X140347619Y-73360714D01*
X140538096Y-73360714D01*
X140633334Y-73408333D01*
X140680953Y-73455952D01*
X140728572Y-73551190D01*
X140728572Y-73836905D01*
X140680953Y-73932143D01*
X140633334Y-73979762D01*
X140538096Y-74027381D01*
X140347619Y-74027381D01*
X140252381Y-73979762D01*
X141157143Y-74027381D02*
X141157143Y-73360714D01*
X141157143Y-73551190D02*
X141204762Y-73455952D01*
X141252381Y-73408333D01*
X141347619Y-73360714D01*
X141442858Y-73360714D01*
X141776191Y-74027381D02*
X141776191Y-73360714D01*
X141776191Y-73027381D02*
X141728572Y-73075000D01*
X141776191Y-73122619D01*
X141823810Y-73075000D01*
X141776191Y-73027381D01*
X141776191Y-73122619D01*
X142395238Y-74027381D02*
X142300000Y-73979762D01*
X142252381Y-73884524D01*
X142252381Y-73027381D01*
X143490477Y-73122619D02*
X143538096Y-73075000D01*
X143633334Y-73027381D01*
X143871430Y-73027381D01*
X143966668Y-73075000D01*
X144014287Y-73122619D01*
X144061906Y-73217857D01*
X144061906Y-73313095D01*
X144014287Y-73455952D01*
X143442858Y-74027381D01*
X144061906Y-74027381D01*
X144680953Y-73027381D02*
X144776192Y-73027381D01*
X144871430Y-73075000D01*
X144919049Y-73122619D01*
X144966668Y-73217857D01*
X145014287Y-73408333D01*
X145014287Y-73646429D01*
X144966668Y-73836905D01*
X144919049Y-73932143D01*
X144871430Y-73979762D01*
X144776192Y-74027381D01*
X144680953Y-74027381D01*
X144585715Y-73979762D01*
X144538096Y-73932143D01*
X144490477Y-73836905D01*
X144442858Y-73646429D01*
X144442858Y-73408333D01*
X144490477Y-73217857D01*
X144538096Y-73122619D01*
X144585715Y-73075000D01*
X144680953Y-73027381D01*
X145966668Y-74027381D02*
X145395239Y-74027381D01*
X145680953Y-74027381D02*
X145680953Y-73027381D01*
X145585715Y-73170238D01*
X145490477Y-73265476D01*
X145395239Y-73313095D01*
X146300001Y-73027381D02*
X146966668Y-73027381D01*
X146538096Y-74027381D01*
X139776191Y-74777381D02*
X140109524Y-75777381D01*
X140442858Y-74777381D01*
X141300001Y-75777381D02*
X140728572Y-75777381D01*
X141014286Y-75777381D02*
X141014286Y-74777381D01*
X140919048Y-74920238D01*
X140823810Y-75015476D01*
X140728572Y-75063095D01*
X141728572Y-75682143D02*
X141776191Y-75729762D01*
X141728572Y-75777381D01*
X141680953Y-75729762D01*
X141728572Y-75682143D01*
X141728572Y-75777381D01*
X142157143Y-74872619D02*
X142204762Y-74825000D01*
X142300000Y-74777381D01*
X142538096Y-74777381D01*
X142633334Y-74825000D01*
X142680953Y-74872619D01*
X142728572Y-74967857D01*
X142728572Y-75063095D01*
X142680953Y-75205952D01*
X142109524Y-75777381D01*
X142728572Y-75777381D01*
D13*
X170650000Y-95700000D02*
X170650000Y-96700000D01*
X172350000Y-96700000D02*
X172350000Y-95700000D01*
X170650000Y-91000000D02*
X170650000Y-92000000D01*
X172350000Y-92000000D02*
X172350000Y-91000000D01*
X172850000Y-95700000D02*
X172850000Y-96700000D01*
X174550000Y-96700000D02*
X174550000Y-95700000D01*
X172850000Y-91000000D02*
X172850000Y-92000000D01*
X174550000Y-92000000D02*
X174550000Y-91000000D01*
X166900000Y-79550000D02*
X167900000Y-79550000D01*
X167900000Y-77850000D02*
X166900000Y-77850000D01*
X154950000Y-93300000D02*
X154950000Y-94300000D01*
X156650000Y-94300000D02*
X156650000Y-93300000D01*
X154950000Y-88500000D02*
X154950000Y-89500000D01*
X156650000Y-89500000D02*
X156650000Y-88500000D01*
X165500000Y-69550000D02*
X166500000Y-69550000D01*
X166500000Y-67850000D02*
X165500000Y-67850000D01*
X152750000Y-93400000D02*
X152750000Y-94400000D01*
X154450000Y-94400000D02*
X154450000Y-93400000D01*
X152650000Y-88500000D02*
X152650000Y-89500000D01*
X154350000Y-89500000D02*
X154350000Y-88500000D01*
X151250000Y-78600000D02*
X151250000Y-79600000D01*
X152950000Y-79600000D02*
X152950000Y-78600000D01*
D14*
X174809590Y-101476020D02*
G75*
G03X174809590Y-101476020I-159070J0D01*
G01*
X173792000Y-99030000D02*
X174808000Y-99030000D01*
X173792000Y-101633500D02*
X174808000Y-101633500D01*
X174808000Y-99030000D02*
X174808000Y-101633500D01*
X173792000Y-101633500D02*
X173792000Y-99030000D01*
D15*
X121852500Y-90798500D02*
X121852500Y-91458900D01*
X119947500Y-90798500D02*
X119947500Y-91458900D01*
X120900000Y-89401500D02*
X120900000Y-88741100D01*
X119401400Y-89401500D02*
X122398600Y-89401500D01*
X122398600Y-89401500D02*
X122398600Y-90798500D01*
X122398600Y-90798500D02*
X119401400Y-90798500D01*
X119401400Y-90798500D02*
X119401400Y-89401500D01*
X127252500Y-90798500D02*
X127252500Y-91458900D01*
X125347500Y-90798500D02*
X125347500Y-91458900D01*
X126300000Y-89401500D02*
X126300000Y-88741100D01*
X124801400Y-89401500D02*
X127798600Y-89401500D01*
X127798600Y-89401500D02*
X127798600Y-90798500D01*
X127798600Y-90798500D02*
X124801400Y-90798500D01*
X124801400Y-90798500D02*
X124801400Y-89401500D01*
D13*
X159400000Y-116875000D02*
X158200000Y-116875000D01*
X158200000Y-115125000D02*
X159400000Y-115125000D01*
X154200000Y-116875000D02*
X153000000Y-116875000D01*
X153000000Y-115125000D02*
X154200000Y-115125000D01*
X172200000Y-87075000D02*
X171000000Y-87075000D01*
X171000000Y-85325000D02*
X172200000Y-85325000D01*
X121775000Y-84800000D02*
X121775000Y-86000000D01*
X120025000Y-86000000D02*
X120025000Y-84800000D01*
X117625000Y-86000000D02*
X117625000Y-84800000D01*
X119375000Y-84800000D02*
X119375000Y-86000000D01*
X127175000Y-84900000D02*
X127175000Y-86100000D01*
X125425000Y-86100000D02*
X125425000Y-84900000D01*
X123025000Y-86100000D02*
X123025000Y-84900000D01*
X124775000Y-84900000D02*
X124775000Y-86100000D01*
X150675000Y-78400000D02*
X150675000Y-79600000D01*
X148925000Y-79600000D02*
X148925000Y-78400000D01*
X167100000Y-115225000D02*
X168300000Y-115225000D01*
X168300000Y-116975000D02*
X167100000Y-116975000D01*
X167925000Y-101000000D02*
X167925000Y-99800000D01*
X169675000Y-99800000D02*
X169675000Y-101000000D01*
D16*
X155350960Y-69701180D02*
X155350960Y-81298820D01*
X162849040Y-81298820D02*
X162849040Y-69701180D01*
D15*
X155340800Y-70420000D02*
X154248600Y-70420000D01*
X155340800Y-71690000D02*
X154248600Y-71690000D01*
X155340800Y-72960000D02*
X154248600Y-72960000D01*
X163951400Y-80580000D02*
X162859200Y-80580000D01*
D16*
X162849040Y-69701180D02*
X155350960Y-69701180D01*
X155350960Y-81298820D02*
X162849040Y-81298820D01*
D15*
X155340800Y-80580000D02*
X154248600Y-80580000D01*
X155340800Y-79310000D02*
X154248600Y-79310000D01*
X155340800Y-78040000D02*
X154248600Y-78040000D01*
X154248600Y-76770000D02*
X155340800Y-76770000D01*
X154248600Y-75500000D02*
X155340800Y-75500000D01*
X154248600Y-74230000D02*
X155340800Y-74230000D01*
X162859200Y-70420000D02*
X163951400Y-70420000D01*
X162859200Y-71690000D02*
X163951400Y-71690000D01*
X162859200Y-72960000D02*
X163951400Y-72960000D01*
X162859200Y-79310000D02*
X163951400Y-79310000D01*
X163951400Y-78040000D02*
X162859200Y-78040000D01*
X163951400Y-74230000D02*
X162859200Y-74230000D01*
X163951400Y-75500000D02*
X162859200Y-75500000D01*
X163951400Y-76770000D02*
X162859200Y-76770000D01*
D16*
X162219147Y-80115180D02*
G75*
G03X162219147Y-80115180I-472467J0D01*
G01*
X128551120Y-71250960D02*
X118248880Y-71250960D01*
X118248880Y-78749040D02*
X128551120Y-78749040D01*
D15*
X127845000Y-71240800D02*
X127845000Y-70148600D01*
X126575000Y-71240800D02*
X126575000Y-70148600D01*
X125305000Y-71240800D02*
X125305000Y-70148600D01*
D16*
X128551120Y-78749040D02*
X128551120Y-71250960D01*
X118248880Y-71250960D02*
X118248880Y-78749040D01*
D15*
X118955000Y-71240800D02*
X118955000Y-70148600D01*
X120225000Y-71240800D02*
X120225000Y-70148600D01*
X121495000Y-70148600D02*
X121495000Y-71240800D01*
X122765000Y-70148600D02*
X122765000Y-71240800D01*
X124035000Y-70148600D02*
X124035000Y-71240800D01*
X127845000Y-78759200D02*
X127845000Y-79851400D01*
X126575000Y-78759200D02*
X126575000Y-79851400D01*
X125305000Y-78759200D02*
X125305000Y-79851400D01*
X118955000Y-78759200D02*
X118955000Y-79851400D01*
X120225000Y-79851400D02*
X120225000Y-78759200D01*
X124035000Y-79851400D02*
X124035000Y-78759200D01*
X122765000Y-79851400D02*
X122765000Y-78759200D01*
X121495000Y-79851400D02*
X121495000Y-78759200D01*
D16*
X119856727Y-77646680D02*
G75*
G03X119856727Y-77646680I-472467J0D01*
G01*
D13*
X169000000Y-70500000D02*
X169000000Y-77300000D01*
X169000000Y-77300000D02*
X165800000Y-77300000D01*
X165800000Y-77300000D02*
X165800000Y-70500000D01*
X165800000Y-70500000D02*
X169000000Y-70500000D01*
X173600000Y-105075000D02*
X172600000Y-105075000D01*
X172600000Y-103725000D02*
X173600000Y-103725000D01*
X159775000Y-100600000D02*
X159775000Y-101600000D01*
X158425000Y-101600000D02*
X158425000Y-100600000D01*
X171060000Y-105560000D02*
X176140000Y-105560000D01*
X176140000Y-105560000D02*
X176140000Y-110640000D01*
X176140000Y-110640000D02*
X171060000Y-110640000D01*
X171060000Y-110640000D02*
X171060000Y-105560000D01*
D16*
X159550960Y-84299200D02*
X159550960Y-97100800D01*
X167049040Y-97100800D02*
X167049040Y-84299200D01*
D15*
X168151400Y-96415000D02*
X167059200Y-96415000D01*
X167059200Y-95145000D02*
X168151400Y-95145000D01*
X167059200Y-93875000D02*
X168151400Y-93875000D01*
X167059200Y-92605000D02*
X168151400Y-92605000D01*
X158448600Y-84985000D02*
X159540800Y-84985000D01*
X159540800Y-96415000D02*
X158448600Y-96415000D01*
D16*
X159550960Y-97100800D02*
X167049040Y-97100800D01*
X167049040Y-84299200D02*
X159550960Y-84299200D01*
D15*
X167059200Y-84985000D02*
X168151400Y-84985000D01*
X167059200Y-86255000D02*
X168151400Y-86255000D01*
X167059200Y-87525000D02*
X168151400Y-87525000D01*
X168151400Y-88795000D02*
X167059200Y-88795000D01*
X168151400Y-90065000D02*
X167059200Y-90065000D01*
X168151400Y-91335000D02*
X167059200Y-91335000D01*
X159540800Y-95145000D02*
X158448600Y-95145000D01*
X159540800Y-93875000D02*
X158448600Y-93875000D01*
X159540800Y-92605000D02*
X158448600Y-92605000D01*
X159540800Y-86255000D02*
X158448600Y-86255000D01*
X158448600Y-87525000D02*
X159540800Y-87525000D01*
X158448600Y-91335000D02*
X159540800Y-91335000D01*
X158448600Y-90065000D02*
X159540800Y-90065000D01*
X158448600Y-88795000D02*
X159540800Y-88795000D01*
D16*
X161125787Y-85485380D02*
G75*
G03X161125787Y-85485380I-472467J0D01*
G01*
D13*
X116699000Y-78592300D02*
X116699000Y-77592300D01*
X114999000Y-77592300D02*
X114999000Y-78592300D01*
X115243000Y-71309200D02*
X114043000Y-71309200D01*
X114043000Y-69559200D02*
X115243000Y-69559200D01*
X115205000Y-73798400D02*
X114005000Y-73798400D01*
X114005000Y-72048400D02*
X115205000Y-72048400D01*
X171950000Y-101500000D02*
X171950000Y-100500000D01*
X170250000Y-100500000D02*
X170250000Y-101500000D01*
X169398000Y-62379000D02*
X118598000Y-62379000D01*
X121138000Y-67459000D02*
X169398000Y-67459000D01*
X169398000Y-62379000D02*
X169398000Y-67459000D01*
X118598000Y-62379000D02*
X118598000Y-64919000D01*
X118598000Y-67459000D02*
X121138000Y-67459000D01*
X118598000Y-64919000D02*
X121138000Y-64919000D01*
X121138000Y-64919000D02*
X121138000Y-67459000D01*
X118598000Y-67459000D02*
X118598000Y-64919000D01*
X154566000Y-104238000D02*
X154566000Y-108302000D01*
X154566000Y-108302000D02*
X145930000Y-108302000D01*
X145930000Y-108302000D02*
X145930000Y-104238000D01*
X145930000Y-104238000D02*
X154566000Y-104238000D01*
X154566000Y-109738000D02*
X154566000Y-113802000D01*
X154566000Y-113802000D02*
X145930000Y-113802000D01*
X145930000Y-113802000D02*
X145930000Y-109738000D01*
X145930000Y-109738000D02*
X154566000Y-109738000D01*
D10*
X158900000Y-108400000D02*
X160300000Y-108400000D01*
X158900000Y-108400000D02*
X158900000Y-106300000D01*
X158900000Y-106300000D02*
X160300000Y-106300000D01*
X160300000Y-100900000D02*
X160300000Y-111300000D01*
X167700000Y-111500000D02*
X167700000Y-113700000D01*
X167700000Y-113700000D02*
X160300000Y-113700000D01*
X160300000Y-113700000D02*
X160300000Y-111300000D01*
X160300000Y-100900000D02*
X167700000Y-100900000D01*
X167700000Y-100900000D02*
X167700000Y-103100000D01*
X167700000Y-111500000D02*
X167700000Y-103100000D01*
X131600000Y-117230000D02*
X117630000Y-117230000D01*
X117630000Y-117230000D02*
X117630000Y-94370000D01*
X117630000Y-94370000D02*
X145570000Y-94370000D01*
X145570000Y-94370000D02*
X145570000Y-117230000D01*
X145570000Y-117230000D02*
X131600000Y-117230000D01*
X131600000Y-94370000D02*
X122710000Y-94370000D01*
X117630000Y-105800000D02*
X117630000Y-99450000D01*
X145570000Y-105800000D02*
X145570000Y-113420000D01*
X173042000Y-106830000D02*
G75*
G03X173042000Y-106830000I-712000J0D01*
G01*
X175582000Y-109370000D02*
G75*
G03X175582000Y-109370000I-712000J0D01*
G01*
X175582000Y-106830000D02*
G75*
G03X175582000Y-106830000I-712000J0D01*
G01*
X119054400Y-63649000D02*
X119054400Y-63649000D01*
X120681600Y-63649000D02*
X120681600Y-63649000D01*
X119054400Y-63649000D02*
G75*
G03X120681600Y-63649000I813600J0D01*
G01*
X120681600Y-63649000D02*
G75*
G03X119054400Y-63649000I-813600J0D01*
G01*
X121594400Y-66189000D02*
X121594400Y-66189000D01*
X123221600Y-66189000D02*
X123221600Y-66189000D01*
X121594400Y-66189000D02*
G75*
G03X123221600Y-66189000I813600J0D01*
G01*
X123221600Y-66189000D02*
G75*
G03X121594400Y-66189000I-813600J0D01*
G01*
X121594400Y-63649000D02*
X121594400Y-63649000D01*
X123221600Y-63649000D02*
X123221600Y-63649000D01*
X121594400Y-63649000D02*
G75*
G03X123221600Y-63649000I813600J0D01*
G01*
X123221600Y-63649000D02*
G75*
G03X121594400Y-63649000I-813600J0D01*
G01*
X124134400Y-66189000D02*
X124134400Y-66189000D01*
X125761600Y-66189000D02*
X125761600Y-66189000D01*
X124134400Y-66189000D02*
G75*
G03X125761600Y-66189000I813600J0D01*
G01*
X125761600Y-66189000D02*
G75*
G03X124134400Y-66189000I-813600J0D01*
G01*
X124134400Y-63649000D02*
X124134400Y-63649000D01*
X125761600Y-63649000D02*
X125761600Y-63649000D01*
X124134400Y-63649000D02*
G75*
G03X125761600Y-63649000I813600J0D01*
G01*
X125761600Y-63649000D02*
G75*
G03X124134400Y-63649000I-813600J0D01*
G01*
X126674400Y-66189000D02*
X126674400Y-66189000D01*
X128301600Y-66189000D02*
X128301600Y-66189000D01*
X126674400Y-66189000D02*
G75*
G03X128301600Y-66189000I813600J0D01*
G01*
X128301600Y-66189000D02*
G75*
G03X126674400Y-66189000I-813600J0D01*
G01*
X126674400Y-63649000D02*
X126674400Y-63649000D01*
X128301600Y-63649000D02*
X128301600Y-63649000D01*
X126674400Y-63649000D02*
G75*
G03X128301600Y-63649000I813600J0D01*
G01*
X128301600Y-63649000D02*
G75*
G03X126674400Y-63649000I-813600J0D01*
G01*
X129214400Y-66189000D02*
X129214400Y-66189000D01*
X130841600Y-66189000D02*
X130841600Y-66189000D01*
X129214400Y-66189000D02*
G75*
G03X130841600Y-66189000I813600J0D01*
G01*
X130841600Y-66189000D02*
G75*
G03X129214400Y-66189000I-813600J0D01*
G01*
X129214400Y-63649000D02*
X129214400Y-63649000D01*
X130841600Y-63649000D02*
X130841600Y-63649000D01*
X129214400Y-63649000D02*
G75*
G03X130841600Y-63649000I813600J0D01*
G01*
X130841600Y-63649000D02*
G75*
G03X129214400Y-63649000I-813600J0D01*
G01*
X131754400Y-66189000D02*
X131754400Y-66189000D01*
X133381600Y-66189000D02*
X133381600Y-66189000D01*
X131754400Y-66189000D02*
G75*
G03X133381600Y-66189000I813600J0D01*
G01*
X133381600Y-66189000D02*
G75*
G03X131754400Y-66189000I-813600J0D01*
G01*
X131754400Y-63649000D02*
X131754400Y-63649000D01*
X133381600Y-63649000D02*
X133381600Y-63649000D01*
X131754400Y-63649000D02*
G75*
G03X133381600Y-63649000I813600J0D01*
G01*
X133381600Y-63649000D02*
G75*
G03X131754400Y-63649000I-813600J0D01*
G01*
X134294400Y-66189000D02*
X134294400Y-66189000D01*
X135921600Y-66189000D02*
X135921600Y-66189000D01*
X134294400Y-66189000D02*
G75*
G03X135921600Y-66189000I813600J0D01*
G01*
X135921600Y-66189000D02*
G75*
G03X134294400Y-66189000I-813600J0D01*
G01*
X134294400Y-63649000D02*
X134294400Y-63649000D01*
X135921600Y-63649000D02*
X135921600Y-63649000D01*
X134294400Y-63649000D02*
G75*
G03X135921600Y-63649000I813600J0D01*
G01*
X135921600Y-63649000D02*
G75*
G03X134294400Y-63649000I-813600J0D01*
G01*
X136834400Y-66189000D02*
X136834400Y-66189000D01*
X138461600Y-66189000D02*
X138461600Y-66189000D01*
X136834400Y-66189000D02*
G75*
G03X138461600Y-66189000I813600J0D01*
G01*
X138461600Y-66189000D02*
G75*
G03X136834400Y-66189000I-813600J0D01*
G01*
X136834400Y-63649000D02*
X136834400Y-63649000D01*
X138461600Y-63649000D02*
X138461600Y-63649000D01*
X136834400Y-63649000D02*
G75*
G03X138461600Y-63649000I813600J0D01*
G01*
X138461600Y-63649000D02*
G75*
G03X136834400Y-63649000I-813600J0D01*
G01*
X139374400Y-66189000D02*
X139374400Y-66189000D01*
X141001600Y-66189000D02*
X141001600Y-66189000D01*
X139374400Y-66189000D02*
G75*
G03X141001600Y-66189000I813600J0D01*
G01*
X141001600Y-66189000D02*
G75*
G03X139374400Y-66189000I-813600J0D01*
G01*
X139374400Y-63649000D02*
X139374400Y-63649000D01*
X141001600Y-63649000D02*
X141001600Y-63649000D01*
X139374400Y-63649000D02*
G75*
G03X141001600Y-63649000I813600J0D01*
G01*
X141001600Y-63649000D02*
G75*
G03X139374400Y-63649000I-813600J0D01*
G01*
X141914400Y-66189000D02*
X141914400Y-66189000D01*
X143541600Y-66189000D02*
X143541600Y-66189000D01*
X141914400Y-66189000D02*
G75*
G03X143541600Y-66189000I813600J0D01*
G01*
X143541600Y-66189000D02*
G75*
G03X141914400Y-66189000I-813600J0D01*
G01*
X141914400Y-63649000D02*
X141914400Y-63649000D01*
X143541600Y-63649000D02*
X143541600Y-63649000D01*
X141914400Y-63649000D02*
G75*
G03X143541600Y-63649000I813600J0D01*
G01*
X143541600Y-63649000D02*
G75*
G03X141914400Y-63649000I-813600J0D01*
G01*
X144454400Y-66189000D02*
X144454400Y-66189000D01*
X146081600Y-66189000D02*
X146081600Y-66189000D01*
X144454400Y-66189000D02*
G75*
G03X146081600Y-66189000I813600J0D01*
G01*
X146081600Y-66189000D02*
G75*
G03X144454400Y-66189000I-813600J0D01*
G01*
X144454400Y-63649000D02*
X144454400Y-63649000D01*
X146081600Y-63649000D02*
X146081600Y-63649000D01*
X144454400Y-63649000D02*
G75*
G03X146081600Y-63649000I813600J0D01*
G01*
X146081600Y-63649000D02*
G75*
G03X144454400Y-63649000I-813600J0D01*
G01*
X146994400Y-66189000D02*
X146994400Y-66189000D01*
X148621600Y-66189000D02*
X148621600Y-66189000D01*
X146994400Y-66189000D02*
G75*
G03X148621600Y-66189000I813600J0D01*
G01*
X148621600Y-66189000D02*
G75*
G03X146994400Y-66189000I-813600J0D01*
G01*
X146994400Y-63649000D02*
X146994400Y-63649000D01*
X148621600Y-63649000D02*
X148621600Y-63649000D01*
X146994400Y-63649000D02*
G75*
G03X148621600Y-63649000I813600J0D01*
G01*
X148621600Y-63649000D02*
G75*
G03X146994400Y-63649000I-813600J0D01*
G01*
X149534400Y-66189000D02*
X149534400Y-66189000D01*
X151161600Y-66189000D02*
X151161600Y-66189000D01*
X149534400Y-66189000D02*
G75*
G03X151161600Y-66189000I813600J0D01*
G01*
X151161600Y-66189000D02*
G75*
G03X149534400Y-66189000I-813600J0D01*
G01*
X149534400Y-63649000D02*
X149534400Y-63649000D01*
X151161600Y-63649000D02*
X151161600Y-63649000D01*
X149534400Y-63649000D02*
G75*
G03X151161600Y-63649000I813600J0D01*
G01*
X151161600Y-63649000D02*
G75*
G03X149534400Y-63649000I-813600J0D01*
G01*
X152074400Y-66189000D02*
X152074400Y-66189000D01*
X153701600Y-66189000D02*
X153701600Y-66189000D01*
X152074400Y-66189000D02*
G75*
G03X153701600Y-66189000I813600J0D01*
G01*
X153701600Y-66189000D02*
G75*
G03X152074400Y-66189000I-813600J0D01*
G01*
X152074400Y-63649000D02*
X152074400Y-63649000D01*
X153701600Y-63649000D02*
X153701600Y-63649000D01*
X152074400Y-63649000D02*
G75*
G03X153701600Y-63649000I813600J0D01*
G01*
X153701600Y-63649000D02*
G75*
G03X152074400Y-63649000I-813600J0D01*
G01*
X154614400Y-66189000D02*
X154614400Y-66189000D01*
X156241600Y-66189000D02*
X156241600Y-66189000D01*
X154614400Y-66189000D02*
G75*
G03X156241600Y-66189000I813600J0D01*
G01*
X156241600Y-66189000D02*
G75*
G03X154614400Y-66189000I-813600J0D01*
G01*
X154614400Y-63649000D02*
X154614400Y-63649000D01*
X156241600Y-63649000D02*
X156241600Y-63649000D01*
X154614400Y-63649000D02*
G75*
G03X156241600Y-63649000I813600J0D01*
G01*
X156241600Y-63649000D02*
G75*
G03X154614400Y-63649000I-813600J0D01*
G01*
X157154400Y-66189000D02*
X157154400Y-66189000D01*
X158781600Y-66189000D02*
X158781600Y-66189000D01*
X157154400Y-66189000D02*
G75*
G03X158781600Y-66189000I813600J0D01*
G01*
X158781600Y-66189000D02*
G75*
G03X157154400Y-66189000I-813600J0D01*
G01*
X157154400Y-63649000D02*
X157154400Y-63649000D01*
X158781600Y-63649000D02*
X158781600Y-63649000D01*
X157154400Y-63649000D02*
G75*
G03X158781600Y-63649000I813600J0D01*
G01*
X158781600Y-63649000D02*
G75*
G03X157154400Y-63649000I-813600J0D01*
G01*
X159694400Y-66189000D02*
X159694400Y-66189000D01*
X161321600Y-66189000D02*
X161321600Y-66189000D01*
X159694400Y-66189000D02*
G75*
G03X161321600Y-66189000I813600J0D01*
G01*
X161321600Y-66189000D02*
G75*
G03X159694400Y-66189000I-813600J0D01*
G01*
X159694400Y-63649000D02*
X159694400Y-63649000D01*
X161321600Y-63649000D02*
X161321600Y-63649000D01*
X159694400Y-63649000D02*
G75*
G03X161321600Y-63649000I813600J0D01*
G01*
X161321600Y-63649000D02*
G75*
G03X159694400Y-63649000I-813600J0D01*
G01*
X162234400Y-66189000D02*
X162234400Y-66189000D01*
X163861600Y-66189000D02*
X163861600Y-66189000D01*
X162234400Y-66189000D02*
G75*
G03X163861600Y-66189000I813600J0D01*
G01*
X163861600Y-66189000D02*
G75*
G03X162234400Y-66189000I-813600J0D01*
G01*
X162234400Y-63649000D02*
X162234400Y-63649000D01*
X163861600Y-63649000D02*
X163861600Y-63649000D01*
X162234400Y-63649000D02*
G75*
G03X163861600Y-63649000I813600J0D01*
G01*
X163861600Y-63649000D02*
G75*
G03X162234400Y-63649000I-813600J0D01*
G01*
X164774400Y-66189000D02*
X164774400Y-66189000D01*
X166401600Y-66189000D02*
X166401600Y-66189000D01*
X164774400Y-66189000D02*
G75*
G03X166401600Y-66189000I813600J0D01*
G01*
X166401600Y-66189000D02*
G75*
G03X164774400Y-66189000I-813600J0D01*
G01*
X164774400Y-63649000D02*
X164774400Y-63649000D01*
X166401600Y-63649000D02*
X166401600Y-63649000D01*
X164774400Y-63649000D02*
G75*
G03X166401600Y-63649000I813600J0D01*
G01*
X166401600Y-63649000D02*
G75*
G03X164774400Y-63649000I-813600J0D01*
G01*
X167314400Y-66189000D02*
X167314400Y-66189000D01*
X168941600Y-66189000D02*
X168941600Y-66189000D01*
X167314400Y-66189000D02*
G75*
G03X168941600Y-66189000I813600J0D01*
G01*
X168941600Y-66189000D02*
G75*
G03X167314400Y-66189000I-813600J0D01*
G01*
X167314400Y-63649000D02*
X167314400Y-63649000D01*
X168941600Y-63649000D02*
X168941600Y-63649000D01*
X167314400Y-63649000D02*
G75*
G03X168941600Y-63649000I813600J0D01*
G01*
X168941600Y-63649000D02*
G75*
G03X167314400Y-63649000I-813600J0D01*
G01*
D13*
X170257143Y-96266666D02*
X170304762Y-96314285D01*
X170352381Y-96457142D01*
X170352381Y-96552380D01*
X170304762Y-96695238D01*
X170209524Y-96790476D01*
X170114286Y-96838095D01*
X169923810Y-96885714D01*
X169780952Y-96885714D01*
X169590476Y-96838095D01*
X169495238Y-96790476D01*
X169400000Y-96695238D01*
X169352381Y-96552380D01*
X169352381Y-96457142D01*
X169400000Y-96314285D01*
X169447619Y-96266666D01*
X170352381Y-95314285D02*
X170352381Y-95885714D01*
X170352381Y-95600000D02*
X169352381Y-95600000D01*
X169495238Y-95695238D01*
X169590476Y-95790476D01*
X169638095Y-95885714D01*
X170157143Y-91666666D02*
X170204762Y-91714285D01*
X170252381Y-91857142D01*
X170252381Y-91952380D01*
X170204762Y-92095238D01*
X170109524Y-92190476D01*
X170014286Y-92238095D01*
X169823810Y-92285714D01*
X169680952Y-92285714D01*
X169490476Y-92238095D01*
X169395238Y-92190476D01*
X169300000Y-92095238D01*
X169252381Y-91952380D01*
X169252381Y-91857142D01*
X169300000Y-91714285D01*
X169347619Y-91666666D01*
X169347619Y-91285714D02*
X169300000Y-91238095D01*
X169252381Y-91142857D01*
X169252381Y-90904761D01*
X169300000Y-90809523D01*
X169347619Y-90761904D01*
X169442857Y-90714285D01*
X169538095Y-90714285D01*
X169680952Y-90761904D01*
X170252381Y-91333333D01*
X170252381Y-90714285D01*
X176357143Y-96066666D02*
X176404762Y-96114285D01*
X176452381Y-96257142D01*
X176452381Y-96352380D01*
X176404762Y-96495238D01*
X176309524Y-96590476D01*
X176214286Y-96638095D01*
X176023810Y-96685714D01*
X175880952Y-96685714D01*
X175690476Y-96638095D01*
X175595238Y-96590476D01*
X175500000Y-96495238D01*
X175452381Y-96352380D01*
X175452381Y-96257142D01*
X175500000Y-96114285D01*
X175547619Y-96066666D01*
X175452381Y-95733333D02*
X175452381Y-95114285D01*
X175833333Y-95447619D01*
X175833333Y-95304761D01*
X175880952Y-95209523D01*
X175928571Y-95161904D01*
X176023810Y-95114285D01*
X176261905Y-95114285D01*
X176357143Y-95161904D01*
X176404762Y-95209523D01*
X176452381Y-95304761D01*
X176452381Y-95590476D01*
X176404762Y-95685714D01*
X176357143Y-95733333D01*
X176057143Y-91466666D02*
X176104762Y-91514285D01*
X176152381Y-91657142D01*
X176152381Y-91752380D01*
X176104762Y-91895238D01*
X176009524Y-91990476D01*
X175914286Y-92038095D01*
X175723810Y-92085714D01*
X175580952Y-92085714D01*
X175390476Y-92038095D01*
X175295238Y-91990476D01*
X175200000Y-91895238D01*
X175152381Y-91752380D01*
X175152381Y-91657142D01*
X175200000Y-91514285D01*
X175247619Y-91466666D01*
X175485714Y-90609523D02*
X176152381Y-90609523D01*
X175104762Y-90847619D02*
X175819048Y-91085714D01*
X175819048Y-90466666D01*
X167233334Y-80857143D02*
X167185715Y-80904762D01*
X167042858Y-80952381D01*
X166947620Y-80952381D01*
X166804762Y-80904762D01*
X166709524Y-80809524D01*
X166661905Y-80714286D01*
X166614286Y-80523810D01*
X166614286Y-80380952D01*
X166661905Y-80190476D01*
X166709524Y-80095238D01*
X166804762Y-80000000D01*
X166947620Y-79952381D01*
X167042858Y-79952381D01*
X167185715Y-80000000D01*
X167233334Y-80047619D01*
X168090477Y-79952381D02*
X167900000Y-79952381D01*
X167804762Y-80000000D01*
X167757143Y-80047619D01*
X167661905Y-80190476D01*
X167614286Y-80380952D01*
X167614286Y-80761905D01*
X167661905Y-80857143D01*
X167709524Y-80904762D01*
X167804762Y-80952381D01*
X167995239Y-80952381D01*
X168090477Y-80904762D01*
X168138096Y-80857143D01*
X168185715Y-80761905D01*
X168185715Y-80523810D01*
X168138096Y-80428571D01*
X168090477Y-80380952D01*
X167995239Y-80333333D01*
X167804762Y-80333333D01*
X167709524Y-80380952D01*
X167661905Y-80428571D01*
X167614286Y-80523810D01*
X155533334Y-97057143D02*
X155485715Y-97104762D01*
X155342858Y-97152381D01*
X155247620Y-97152381D01*
X155104762Y-97104762D01*
X155009524Y-97009524D01*
X154961905Y-96914286D01*
X154914286Y-96723810D01*
X154914286Y-96580952D01*
X154961905Y-96390476D01*
X155009524Y-96295238D01*
X155104762Y-96200000D01*
X155247620Y-96152381D01*
X155342858Y-96152381D01*
X155485715Y-96200000D01*
X155533334Y-96247619D01*
X155866667Y-96152381D02*
X156533334Y-96152381D01*
X156104762Y-97152381D01*
X155633334Y-86357143D02*
X155585715Y-86404762D01*
X155442858Y-86452381D01*
X155347620Y-86452381D01*
X155204762Y-86404762D01*
X155109524Y-86309524D01*
X155061905Y-86214286D01*
X155014286Y-86023810D01*
X155014286Y-85880952D01*
X155061905Y-85690476D01*
X155109524Y-85595238D01*
X155204762Y-85500000D01*
X155347620Y-85452381D01*
X155442858Y-85452381D01*
X155585715Y-85500000D01*
X155633334Y-85547619D01*
X156204762Y-85880952D02*
X156109524Y-85833333D01*
X156061905Y-85785714D01*
X156014286Y-85690476D01*
X156014286Y-85642857D01*
X156061905Y-85547619D01*
X156109524Y-85500000D01*
X156204762Y-85452381D01*
X156395239Y-85452381D01*
X156490477Y-85500000D01*
X156538096Y-85547619D01*
X156585715Y-85642857D01*
X156585715Y-85690476D01*
X156538096Y-85785714D01*
X156490477Y-85833333D01*
X156395239Y-85880952D01*
X156204762Y-85880952D01*
X156109524Y-85928571D01*
X156061905Y-85976190D01*
X156014286Y-86071429D01*
X156014286Y-86261905D01*
X156061905Y-86357143D01*
X156109524Y-86404762D01*
X156204762Y-86452381D01*
X156395239Y-86452381D01*
X156490477Y-86404762D01*
X156538096Y-86357143D01*
X156585715Y-86261905D01*
X156585715Y-86071429D01*
X156538096Y-85976190D01*
X156490477Y-85928571D01*
X156395239Y-85880952D01*
X169580143Y-69048343D02*
X169532524Y-69095962D01*
X169389667Y-69143581D01*
X169294429Y-69143581D01*
X169151571Y-69095962D01*
X169056333Y-69000724D01*
X169008714Y-68905486D01*
X168961095Y-68715010D01*
X168961095Y-68572152D01*
X169008714Y-68381676D01*
X169056333Y-68286438D01*
X169151571Y-68191200D01*
X169294429Y-68143581D01*
X169389667Y-68143581D01*
X169532524Y-68191200D01*
X169580143Y-68238819D01*
X170532524Y-69143581D02*
X169961095Y-69143581D01*
X170246809Y-69143581D02*
X170246809Y-68143581D01*
X170151571Y-68286438D01*
X170056333Y-68381676D01*
X169961095Y-68429295D01*
X171151571Y-68143581D02*
X171246810Y-68143581D01*
X171342048Y-68191200D01*
X171389667Y-68238819D01*
X171437286Y-68334057D01*
X171484905Y-68524533D01*
X171484905Y-68762629D01*
X171437286Y-68953105D01*
X171389667Y-69048343D01*
X171342048Y-69095962D01*
X171246810Y-69143581D01*
X171151571Y-69143581D01*
X171056333Y-69095962D01*
X171008714Y-69048343D01*
X170961095Y-68953105D01*
X170913476Y-68762629D01*
X170913476Y-68524533D01*
X170961095Y-68334057D01*
X171008714Y-68238819D01*
X171056333Y-68191200D01*
X171151571Y-68143581D01*
X152457143Y-97157143D02*
X152409524Y-97204762D01*
X152266667Y-97252381D01*
X152171429Y-97252381D01*
X152028571Y-97204762D01*
X151933333Y-97109524D01*
X151885714Y-97014286D01*
X151838095Y-96823810D01*
X151838095Y-96680952D01*
X151885714Y-96490476D01*
X151933333Y-96395238D01*
X152028571Y-96300000D01*
X152171429Y-96252381D01*
X152266667Y-96252381D01*
X152409524Y-96300000D01*
X152457143Y-96347619D01*
X153409524Y-97252381D02*
X152838095Y-97252381D01*
X153123809Y-97252381D02*
X153123809Y-96252381D01*
X153028571Y-96395238D01*
X152933333Y-96490476D01*
X152838095Y-96538095D01*
X154361905Y-97252381D02*
X153790476Y-97252381D01*
X154076190Y-97252381D02*
X154076190Y-96252381D01*
X153980952Y-96395238D01*
X153885714Y-96490476D01*
X153790476Y-96538095D01*
X152057143Y-86257143D02*
X152009524Y-86304762D01*
X151866667Y-86352381D01*
X151771429Y-86352381D01*
X151628571Y-86304762D01*
X151533333Y-86209524D01*
X151485714Y-86114286D01*
X151438095Y-85923810D01*
X151438095Y-85780952D01*
X151485714Y-85590476D01*
X151533333Y-85495238D01*
X151628571Y-85400000D01*
X151771429Y-85352381D01*
X151866667Y-85352381D01*
X152009524Y-85400000D01*
X152057143Y-85447619D01*
X153009524Y-86352381D02*
X152438095Y-86352381D01*
X152723809Y-86352381D02*
X152723809Y-85352381D01*
X152628571Y-85495238D01*
X152533333Y-85590476D01*
X152438095Y-85638095D01*
X153390476Y-85447619D02*
X153438095Y-85400000D01*
X153533333Y-85352381D01*
X153771429Y-85352381D01*
X153866667Y-85400000D01*
X153914286Y-85447619D01*
X153961905Y-85542857D01*
X153961905Y-85638095D01*
X153914286Y-85780952D01*
X153342857Y-86352381D01*
X153961905Y-86352381D01*
X151907143Y-82617143D02*
X151859524Y-82664762D01*
X151716667Y-82712381D01*
X151621429Y-82712381D01*
X151478571Y-82664762D01*
X151383333Y-82569524D01*
X151335714Y-82474286D01*
X151288095Y-82283810D01*
X151288095Y-82140952D01*
X151335714Y-81950476D01*
X151383333Y-81855238D01*
X151478571Y-81760000D01*
X151621429Y-81712381D01*
X151716667Y-81712381D01*
X151859524Y-81760000D01*
X151907143Y-81807619D01*
X152859524Y-82712381D02*
X152288095Y-82712381D01*
X152573809Y-82712381D02*
X152573809Y-81712381D01*
X152478571Y-81855238D01*
X152383333Y-81950476D01*
X152288095Y-81998095D01*
X153192857Y-81712381D02*
X153811905Y-81712381D01*
X153478571Y-82093333D01*
X153621429Y-82093333D01*
X153716667Y-82140952D01*
X153764286Y-82188571D01*
X153811905Y-82283810D01*
X153811905Y-82521905D01*
X153764286Y-82617143D01*
X153716667Y-82664762D01*
X153621429Y-82712381D01*
X153335714Y-82712381D01*
X153240476Y-82664762D01*
X153192857Y-82617143D01*
X174761905Y-98452381D02*
X174761905Y-97452381D01*
X175000000Y-97452381D01*
X175142858Y-97500000D01*
X175238096Y-97595238D01*
X175285715Y-97690476D01*
X175333334Y-97880952D01*
X175333334Y-98023810D01*
X175285715Y-98214286D01*
X175238096Y-98309524D01*
X175142858Y-98404762D01*
X175000000Y-98452381D01*
X174761905Y-98452381D01*
X176285715Y-98452381D02*
X175714286Y-98452381D01*
X176000000Y-98452381D02*
X176000000Y-97452381D01*
X175904762Y-97595238D01*
X175809524Y-97690476D01*
X175714286Y-97738095D01*
X119204762Y-89147619D02*
X119109524Y-89100000D01*
X119014286Y-89004762D01*
X118871429Y-88861905D01*
X118776190Y-88814286D01*
X118680952Y-88814286D01*
X118728571Y-89052381D02*
X118633333Y-89004762D01*
X118538095Y-88909524D01*
X118490476Y-88719048D01*
X118490476Y-88385714D01*
X118538095Y-88195238D01*
X118633333Y-88100000D01*
X118728571Y-88052381D01*
X118919048Y-88052381D01*
X119014286Y-88100000D01*
X119109524Y-88195238D01*
X119157143Y-88385714D01*
X119157143Y-88719048D01*
X119109524Y-88909524D01*
X119014286Y-89004762D01*
X118919048Y-89052381D01*
X118728571Y-89052381D01*
X120109524Y-89052381D02*
X119538095Y-89052381D01*
X119823809Y-89052381D02*
X119823809Y-88052381D01*
X119728571Y-88195238D01*
X119633333Y-88290476D01*
X119538095Y-88338095D01*
X127804762Y-89147619D02*
X127709524Y-89100000D01*
X127614286Y-89004762D01*
X127471429Y-88861905D01*
X127376190Y-88814286D01*
X127280952Y-88814286D01*
X127328571Y-89052381D02*
X127233333Y-89004762D01*
X127138095Y-88909524D01*
X127090476Y-88719048D01*
X127090476Y-88385714D01*
X127138095Y-88195238D01*
X127233333Y-88100000D01*
X127328571Y-88052381D01*
X127519048Y-88052381D01*
X127614286Y-88100000D01*
X127709524Y-88195238D01*
X127757143Y-88385714D01*
X127757143Y-88719048D01*
X127709524Y-88909524D01*
X127614286Y-89004762D01*
X127519048Y-89052381D01*
X127328571Y-89052381D01*
X128138095Y-88147619D02*
X128185714Y-88100000D01*
X128280952Y-88052381D01*
X128519048Y-88052381D01*
X128614286Y-88100000D01*
X128661905Y-88147619D01*
X128709524Y-88242857D01*
X128709524Y-88338095D01*
X128661905Y-88480952D01*
X128090476Y-89052381D01*
X128709524Y-89052381D01*
X158833334Y-114752381D02*
X158500000Y-114276190D01*
X158261905Y-114752381D02*
X158261905Y-113752381D01*
X158642858Y-113752381D01*
X158738096Y-113800000D01*
X158785715Y-113847619D01*
X158833334Y-113942857D01*
X158833334Y-114085714D01*
X158785715Y-114180952D01*
X158738096Y-114228571D01*
X158642858Y-114276190D01*
X158261905Y-114276190D01*
X159785715Y-114752381D02*
X159214286Y-114752381D01*
X159500000Y-114752381D02*
X159500000Y-113752381D01*
X159404762Y-113895238D01*
X159309524Y-113990476D01*
X159214286Y-114038095D01*
X153133334Y-114852381D02*
X152800000Y-114376190D01*
X152561905Y-114852381D02*
X152561905Y-113852381D01*
X152942858Y-113852381D01*
X153038096Y-113900000D01*
X153085715Y-113947619D01*
X153133334Y-114042857D01*
X153133334Y-114185714D01*
X153085715Y-114280952D01*
X153038096Y-114328571D01*
X152942858Y-114376190D01*
X152561905Y-114376190D01*
X153514286Y-113947619D02*
X153561905Y-113900000D01*
X153657143Y-113852381D01*
X153895239Y-113852381D01*
X153990477Y-113900000D01*
X154038096Y-113947619D01*
X154085715Y-114042857D01*
X154085715Y-114138095D01*
X154038096Y-114280952D01*
X153466667Y-114852381D01*
X154085715Y-114852381D01*
X175133334Y-86652381D02*
X174800000Y-86176190D01*
X174561905Y-86652381D02*
X174561905Y-85652381D01*
X174942858Y-85652381D01*
X175038096Y-85700000D01*
X175085715Y-85747619D01*
X175133334Y-85842857D01*
X175133334Y-85985714D01*
X175085715Y-86080952D01*
X175038096Y-86128571D01*
X174942858Y-86176190D01*
X174561905Y-86176190D01*
X175466667Y-85652381D02*
X176085715Y-85652381D01*
X175752381Y-86033333D01*
X175895239Y-86033333D01*
X175990477Y-86080952D01*
X176038096Y-86128571D01*
X176085715Y-86223810D01*
X176085715Y-86461905D01*
X176038096Y-86557143D01*
X175990477Y-86604762D01*
X175895239Y-86652381D01*
X175609524Y-86652381D01*
X175514286Y-86604762D01*
X175466667Y-86557143D01*
X120733334Y-82752381D02*
X120400000Y-82276190D01*
X120161905Y-82752381D02*
X120161905Y-81752381D01*
X120542858Y-81752381D01*
X120638096Y-81800000D01*
X120685715Y-81847619D01*
X120733334Y-81942857D01*
X120733334Y-82085714D01*
X120685715Y-82180952D01*
X120638096Y-82228571D01*
X120542858Y-82276190D01*
X120161905Y-82276190D01*
X121590477Y-82085714D02*
X121590477Y-82752381D01*
X121352381Y-81704762D02*
X121114286Y-82419048D01*
X121733334Y-82419048D01*
X118333334Y-82752381D02*
X118000000Y-82276190D01*
X117761905Y-82752381D02*
X117761905Y-81752381D01*
X118142858Y-81752381D01*
X118238096Y-81800000D01*
X118285715Y-81847619D01*
X118333334Y-81942857D01*
X118333334Y-82085714D01*
X118285715Y-82180952D01*
X118238096Y-82228571D01*
X118142858Y-82276190D01*
X117761905Y-82276190D01*
X119238096Y-81752381D02*
X118761905Y-81752381D01*
X118714286Y-82228571D01*
X118761905Y-82180952D01*
X118857143Y-82133333D01*
X119095239Y-82133333D01*
X119190477Y-82180952D01*
X119238096Y-82228571D01*
X119285715Y-82323810D01*
X119285715Y-82561905D01*
X119238096Y-82657143D01*
X119190477Y-82704762D01*
X119095239Y-82752381D01*
X118857143Y-82752381D01*
X118761905Y-82704762D01*
X118714286Y-82657143D01*
X126133334Y-82752381D02*
X125800000Y-82276190D01*
X125561905Y-82752381D02*
X125561905Y-81752381D01*
X125942858Y-81752381D01*
X126038096Y-81800000D01*
X126085715Y-81847619D01*
X126133334Y-81942857D01*
X126133334Y-82085714D01*
X126085715Y-82180952D01*
X126038096Y-82228571D01*
X125942858Y-82276190D01*
X125561905Y-82276190D01*
X126990477Y-81752381D02*
X126800000Y-81752381D01*
X126704762Y-81800000D01*
X126657143Y-81847619D01*
X126561905Y-81990476D01*
X126514286Y-82180952D01*
X126514286Y-82561905D01*
X126561905Y-82657143D01*
X126609524Y-82704762D01*
X126704762Y-82752381D01*
X126895239Y-82752381D01*
X126990477Y-82704762D01*
X127038096Y-82657143D01*
X127085715Y-82561905D01*
X127085715Y-82323810D01*
X127038096Y-82228571D01*
X126990477Y-82180952D01*
X126895239Y-82133333D01*
X126704762Y-82133333D01*
X126609524Y-82180952D01*
X126561905Y-82228571D01*
X126514286Y-82323810D01*
X123833334Y-82752381D02*
X123500000Y-82276190D01*
X123261905Y-82752381D02*
X123261905Y-81752381D01*
X123642858Y-81752381D01*
X123738096Y-81800000D01*
X123785715Y-81847619D01*
X123833334Y-81942857D01*
X123833334Y-82085714D01*
X123785715Y-82180952D01*
X123738096Y-82228571D01*
X123642858Y-82276190D01*
X123261905Y-82276190D01*
X124166667Y-81752381D02*
X124833334Y-81752381D01*
X124404762Y-82752381D01*
X149413334Y-82592381D02*
X149080000Y-82116190D01*
X148841905Y-82592381D02*
X148841905Y-81592381D01*
X149222858Y-81592381D01*
X149318096Y-81640000D01*
X149365715Y-81687619D01*
X149413334Y-81782857D01*
X149413334Y-81925714D01*
X149365715Y-82020952D01*
X149318096Y-82068571D01*
X149222858Y-82116190D01*
X148841905Y-82116190D01*
X149984762Y-82020952D02*
X149889524Y-81973333D01*
X149841905Y-81925714D01*
X149794286Y-81830476D01*
X149794286Y-81782857D01*
X149841905Y-81687619D01*
X149889524Y-81640000D01*
X149984762Y-81592381D01*
X150175239Y-81592381D01*
X150270477Y-81640000D01*
X150318096Y-81687619D01*
X150365715Y-81782857D01*
X150365715Y-81830476D01*
X150318096Y-81925714D01*
X150270477Y-81973333D01*
X150175239Y-82020952D01*
X149984762Y-82020952D01*
X149889524Y-82068571D01*
X149841905Y-82116190D01*
X149794286Y-82211429D01*
X149794286Y-82401905D01*
X149841905Y-82497143D01*
X149889524Y-82544762D01*
X149984762Y-82592381D01*
X150175239Y-82592381D01*
X150270477Y-82544762D01*
X150318096Y-82497143D01*
X150365715Y-82401905D01*
X150365715Y-82211429D01*
X150318096Y-82116190D01*
X150270477Y-82068571D01*
X150175239Y-82020952D01*
X168533334Y-114752381D02*
X168200000Y-114276190D01*
X167961905Y-114752381D02*
X167961905Y-113752381D01*
X168342858Y-113752381D01*
X168438096Y-113800000D01*
X168485715Y-113847619D01*
X168533334Y-113942857D01*
X168533334Y-114085714D01*
X168485715Y-114180952D01*
X168438096Y-114228571D01*
X168342858Y-114276190D01*
X167961905Y-114276190D01*
X169009524Y-114752381D02*
X169200000Y-114752381D01*
X169295239Y-114704762D01*
X169342858Y-114657143D01*
X169438096Y-114514286D01*
X169485715Y-114323810D01*
X169485715Y-113942857D01*
X169438096Y-113847619D01*
X169390477Y-113800000D01*
X169295239Y-113752381D01*
X169104762Y-113752381D01*
X169009524Y-113800000D01*
X168961905Y-113847619D01*
X168914286Y-113942857D01*
X168914286Y-114180952D01*
X168961905Y-114276190D01*
X169009524Y-114323810D01*
X169104762Y-114371429D01*
X169295239Y-114371429D01*
X169390477Y-114323810D01*
X169438096Y-114276190D01*
X169485715Y-114180952D01*
X167652381Y-99542857D02*
X167176190Y-99876191D01*
X167652381Y-100114286D02*
X166652381Y-100114286D01*
X166652381Y-99733333D01*
X166700000Y-99638095D01*
X166747619Y-99590476D01*
X166842857Y-99542857D01*
X166985714Y-99542857D01*
X167080952Y-99590476D01*
X167128571Y-99638095D01*
X167176190Y-99733333D01*
X167176190Y-100114286D01*
X167652381Y-98590476D02*
X167652381Y-99161905D01*
X167652381Y-98876191D02*
X166652381Y-98876191D01*
X166795238Y-98971429D01*
X166890476Y-99066667D01*
X166938095Y-99161905D01*
X166652381Y-97971429D02*
X166652381Y-97876190D01*
X166700000Y-97780952D01*
X166747619Y-97733333D01*
X166842857Y-97685714D01*
X167033333Y-97638095D01*
X167271429Y-97638095D01*
X167461905Y-97685714D01*
X167557143Y-97733333D01*
X167604762Y-97780952D01*
X167652381Y-97876190D01*
X167652381Y-97971429D01*
X167604762Y-98066667D01*
X167557143Y-98114286D01*
X167461905Y-98161905D01*
X167271429Y-98209524D01*
X167033333Y-98209524D01*
X166842857Y-98161905D01*
X166747619Y-98114286D01*
X166700000Y-98066667D01*
X166652381Y-97971429D01*
X163218095Y-81476181D02*
X163218095Y-82285705D01*
X163265714Y-82380943D01*
X163313333Y-82428562D01*
X163408571Y-82476181D01*
X163599048Y-82476181D01*
X163694286Y-82428562D01*
X163741905Y-82380943D01*
X163789524Y-82285705D01*
X163789524Y-81476181D01*
X164170476Y-81476181D02*
X164789524Y-81476181D01*
X164456190Y-81857133D01*
X164599048Y-81857133D01*
X164694286Y-81904752D01*
X164741905Y-81952371D01*
X164789524Y-82047610D01*
X164789524Y-82285705D01*
X164741905Y-82380943D01*
X164694286Y-82428562D01*
X164599048Y-82476181D01*
X164313333Y-82476181D01*
X164218095Y-82428562D01*
X164170476Y-82380943D01*
X116952381Y-75961905D02*
X117761905Y-75961905D01*
X117857143Y-75914286D01*
X117904762Y-75866667D01*
X117952381Y-75771429D01*
X117952381Y-75580952D01*
X117904762Y-75485714D01*
X117857143Y-75438095D01*
X117761905Y-75390476D01*
X116952381Y-75390476D01*
X117952381Y-74866667D02*
X117952381Y-74676191D01*
X117904762Y-74580952D01*
X117857143Y-74533333D01*
X117714286Y-74438095D01*
X117523810Y-74390476D01*
X117142857Y-74390476D01*
X117047619Y-74438095D01*
X117000000Y-74485714D01*
X116952381Y-74580952D01*
X116952381Y-74771429D01*
X117000000Y-74866667D01*
X117047619Y-74914286D01*
X117142857Y-74961905D01*
X117380952Y-74961905D01*
X117476190Y-74914286D01*
X117523810Y-74866667D01*
X117571429Y-74771429D01*
X117571429Y-74580952D01*
X117523810Y-74485714D01*
X117476190Y-74438095D01*
X117380952Y-74390476D01*
X169723809Y-73976190D02*
X169723809Y-74452381D01*
X169390476Y-73452381D02*
X169723809Y-73976190D01*
X170057143Y-73452381D01*
X170914286Y-74452381D02*
X170342857Y-74452381D01*
X170628571Y-74452381D02*
X170628571Y-73452381D01*
X170533333Y-73595238D01*
X170438095Y-73690476D01*
X170342857Y-73738095D01*
X175728571Y-104733333D02*
X175728571Y-105066667D01*
X176252381Y-105066667D02*
X175252381Y-105066667D01*
X175252381Y-104590476D01*
X175728571Y-103876190D02*
X175776190Y-103733333D01*
X175823810Y-103685714D01*
X175919048Y-103638095D01*
X176061905Y-103638095D01*
X176157143Y-103685714D01*
X176204762Y-103733333D01*
X176252381Y-103828571D01*
X176252381Y-104209524D01*
X175252381Y-104209524D01*
X175252381Y-103876190D01*
X175300000Y-103780952D01*
X175347619Y-103733333D01*
X175442857Y-103685714D01*
X175538095Y-103685714D01*
X175633333Y-103733333D01*
X175680952Y-103780952D01*
X175728571Y-103876190D01*
X175728571Y-104209524D01*
X176252381Y-102685714D02*
X176252381Y-103257143D01*
X176252381Y-102971429D02*
X175252381Y-102971429D01*
X175395238Y-103066667D01*
X175490476Y-103161905D01*
X175538095Y-103257143D01*
X160166667Y-99828571D02*
X159833333Y-99828571D01*
X159833333Y-100352381D02*
X159833333Y-99352381D01*
X160309524Y-99352381D01*
X161023810Y-99828571D02*
X161166667Y-99876190D01*
X161214286Y-99923810D01*
X161261905Y-100019048D01*
X161261905Y-100161905D01*
X161214286Y-100257143D01*
X161166667Y-100304762D01*
X161071429Y-100352381D01*
X160690476Y-100352381D01*
X160690476Y-99352381D01*
X161023810Y-99352381D01*
X161119048Y-99400000D01*
X161166667Y-99447619D01*
X161214286Y-99542857D01*
X161214286Y-99638095D01*
X161166667Y-99733333D01*
X161119048Y-99780952D01*
X161023810Y-99828571D01*
X160690476Y-99828571D01*
X161642857Y-99447619D02*
X161690476Y-99400000D01*
X161785714Y-99352381D01*
X162023810Y-99352381D01*
X162119048Y-99400000D01*
X162166667Y-99447619D01*
X162214286Y-99542857D01*
X162214286Y-99638095D01*
X162166667Y-99780952D01*
X161595238Y-100352381D01*
X162214286Y-100352381D01*
X174661905Y-111952381D02*
X174661905Y-110952381D01*
X175042858Y-110952381D01*
X175138096Y-111000000D01*
X175185715Y-111047619D01*
X175233334Y-111142857D01*
X175233334Y-111285714D01*
X175185715Y-111380952D01*
X175138096Y-111428571D01*
X175042858Y-111476190D01*
X174661905Y-111476190D01*
X175566667Y-110952381D02*
X176233334Y-110952381D01*
X175804762Y-111952381D01*
X158340095Y-82785381D02*
X158340095Y-83594905D01*
X158387714Y-83690143D01*
X158435333Y-83737762D01*
X158530571Y-83785381D01*
X158721048Y-83785381D01*
X158816286Y-83737762D01*
X158863905Y-83690143D01*
X158911524Y-83594905D01*
X158911524Y-82785381D01*
X159911524Y-83785381D02*
X159340095Y-83785381D01*
X159625809Y-83785381D02*
X159625809Y-82785381D01*
X159530571Y-82928238D01*
X159435333Y-83023476D01*
X159340095Y-83071095D01*
X114313843Y-78119266D02*
X114361462Y-78166885D01*
X114409081Y-78309742D01*
X114409081Y-78404980D01*
X114361462Y-78547838D01*
X114266224Y-78643076D01*
X114170986Y-78690695D01*
X113980510Y-78738314D01*
X113837652Y-78738314D01*
X113647176Y-78690695D01*
X113551938Y-78643076D01*
X113456700Y-78547838D01*
X113409081Y-78404980D01*
X113409081Y-78309742D01*
X113456700Y-78166885D01*
X113504319Y-78119266D01*
X113409081Y-77214504D02*
X113409081Y-77690695D01*
X113885271Y-77738314D01*
X113837652Y-77690695D01*
X113790033Y-77595457D01*
X113790033Y-77357361D01*
X113837652Y-77262123D01*
X113885271Y-77214504D01*
X113980510Y-77166885D01*
X114218605Y-77166885D01*
X114313843Y-77214504D01*
X114361462Y-77262123D01*
X114409081Y-77357361D01*
X114409081Y-77595457D01*
X114361462Y-77690695D01*
X114313843Y-77738314D01*
X113957143Y-69252381D02*
X113623809Y-68776190D01*
X113385714Y-69252381D02*
X113385714Y-68252381D01*
X113766667Y-68252381D01*
X113861905Y-68300000D01*
X113909524Y-68347619D01*
X113957143Y-68442857D01*
X113957143Y-68585714D01*
X113909524Y-68680952D01*
X113861905Y-68728571D01*
X113766667Y-68776190D01*
X113385714Y-68776190D01*
X114909524Y-69252381D02*
X114338095Y-69252381D01*
X114623809Y-69252381D02*
X114623809Y-68252381D01*
X114528571Y-68395238D01*
X114433333Y-68490476D01*
X114338095Y-68538095D01*
X115861905Y-69252381D02*
X115290476Y-69252381D01*
X115576190Y-69252381D02*
X115576190Y-68252381D01*
X115480952Y-68395238D01*
X115385714Y-68490476D01*
X115290476Y-68538095D01*
X113957143Y-75152381D02*
X113623809Y-74676190D01*
X113385714Y-75152381D02*
X113385714Y-74152381D01*
X113766667Y-74152381D01*
X113861905Y-74200000D01*
X113909524Y-74247619D01*
X113957143Y-74342857D01*
X113957143Y-74485714D01*
X113909524Y-74580952D01*
X113861905Y-74628571D01*
X113766667Y-74676190D01*
X113385714Y-74676190D01*
X114909524Y-75152381D02*
X114338095Y-75152381D01*
X114623809Y-75152381D02*
X114623809Y-74152381D01*
X114528571Y-74295238D01*
X114433333Y-74390476D01*
X114338095Y-74438095D01*
X115290476Y-74247619D02*
X115338095Y-74200000D01*
X115433333Y-74152381D01*
X115671429Y-74152381D01*
X115766667Y-74200000D01*
X115814286Y-74247619D01*
X115861905Y-74342857D01*
X115861905Y-74438095D01*
X115814286Y-74580952D01*
X115242857Y-75152381D01*
X115861905Y-75152381D01*
X173257143Y-102842857D02*
X173304762Y-102890476D01*
X173352381Y-103033333D01*
X173352381Y-103128571D01*
X173304762Y-103271429D01*
X173209524Y-103366667D01*
X173114286Y-103414286D01*
X172923810Y-103461905D01*
X172780952Y-103461905D01*
X172590476Y-103414286D01*
X172495238Y-103366667D01*
X172400000Y-103271429D01*
X172352381Y-103128571D01*
X172352381Y-103033333D01*
X172400000Y-102890476D01*
X172447619Y-102842857D01*
X173352381Y-101890476D02*
X173352381Y-102461905D01*
X173352381Y-102176191D02*
X172352381Y-102176191D01*
X172495238Y-102271429D01*
X172590476Y-102366667D01*
X172638095Y-102461905D01*
X172685714Y-101033333D02*
X173352381Y-101033333D01*
X172304762Y-101271429D02*
X173019048Y-101509524D01*
X173019048Y-100890476D01*
X118364667Y-67771381D02*
X118364667Y-68485667D01*
X118317047Y-68628524D01*
X118221809Y-68723762D01*
X118078952Y-68771381D01*
X117983714Y-68771381D01*
X119364667Y-68771381D02*
X118793238Y-68771381D01*
X119078952Y-68771381D02*
X119078952Y-67771381D01*
X118983714Y-67914238D01*
X118888476Y-68009476D01*
X118793238Y-68057095D01*
X149623810Y-103852381D02*
X149623810Y-102852381D01*
X150671429Y-103757143D02*
X150623810Y-103804762D01*
X150480953Y-103852381D01*
X150385715Y-103852381D01*
X150242857Y-103804762D01*
X150147619Y-103709524D01*
X150100000Y-103614286D01*
X150052381Y-103423810D01*
X150052381Y-103280952D01*
X150100000Y-103090476D01*
X150147619Y-102995238D01*
X150242857Y-102900000D01*
X150385715Y-102852381D01*
X150480953Y-102852381D01*
X150623810Y-102900000D01*
X150671429Y-102947619D01*
X151623810Y-103852381D02*
X151052381Y-103852381D01*
X151338095Y-103852381D02*
X151338095Y-102852381D01*
X151242857Y-102995238D01*
X151147619Y-103090476D01*
X151052381Y-103138095D01*
X149323810Y-109552381D02*
X149323810Y-108552381D01*
X150371429Y-109457143D02*
X150323810Y-109504762D01*
X150180953Y-109552381D01*
X150085715Y-109552381D01*
X149942857Y-109504762D01*
X149847619Y-109409524D01*
X149800000Y-109314286D01*
X149752381Y-109123810D01*
X149752381Y-108980952D01*
X149800000Y-108790476D01*
X149847619Y-108695238D01*
X149942857Y-108600000D01*
X150085715Y-108552381D01*
X150180953Y-108552381D01*
X150323810Y-108600000D01*
X150371429Y-108647619D01*
X150752381Y-108647619D02*
X150800000Y-108600000D01*
X150895238Y-108552381D01*
X151133334Y-108552381D01*
X151228572Y-108600000D01*
X151276191Y-108647619D01*
X151323810Y-108742857D01*
X151323810Y-108838095D01*
X151276191Y-108980952D01*
X150704762Y-109552381D01*
X151323810Y-109552381D01*
X158361905Y-113052381D02*
X158361905Y-112052381D01*
X158742858Y-112052381D01*
X158838096Y-112100000D01*
X158885715Y-112147619D01*
X158933334Y-112242857D01*
X158933334Y-112385714D01*
X158885715Y-112480952D01*
X158838096Y-112528571D01*
X158742858Y-112576190D01*
X158361905Y-112576190D01*
X159314286Y-112147619D02*
X159361905Y-112100000D01*
X159457143Y-112052381D01*
X159695239Y-112052381D01*
X159790477Y-112100000D01*
X159838096Y-112147619D01*
X159885715Y-112242857D01*
X159885715Y-112338095D01*
X159838096Y-112480952D01*
X159266667Y-113052381D01*
X159885715Y-113052381D01*
X115138104Y-100592389D02*
X115138104Y-101401913D01*
X115185723Y-101497151D01*
X115233342Y-101544770D01*
X115328580Y-101592389D01*
X115519057Y-101592389D01*
X115614295Y-101544770D01*
X115661914Y-101497151D01*
X115709533Y-101401913D01*
X115709533Y-100592389D01*
X116661914Y-100592389D02*
X116185723Y-100592389D01*
X116138104Y-101068579D01*
X116185723Y-101020960D01*
X116280961Y-100973341D01*
X116519057Y-100973341D01*
X116614295Y-101020960D01*
X116661914Y-101068579D01*
X116709533Y-101163818D01*
X116709533Y-101401913D01*
X116661914Y-101497151D01*
X116614295Y-101544770D01*
X116519057Y-101592389D01*
X116280961Y-101592389D01*
X116185723Y-101544770D01*
X116138104Y-101497151D01*
M02*
