M48
;DRILL file {KiCad 4.0.4+e1-6308~48~ubuntu15.10.1-stable} date Sun Apr 23 18:13:51 2017
;FORMAT={-:-/ absolute / inch / decimal}
FMAT,2
INCH,TZ
T1C0.016
T2C0.040
T3C0.100
T4C0.108
%
G90
G05
M72
T1
X4.7724Y-3.2597
X4.7973Y-2.8177
X4.9903Y-3.9048
X6.0353Y-4.2639
X6.2278Y-4.3966
X6.251Y-4.5624
X6.3345Y-4.1769
X6.4646Y-3.8517
X6.5132Y-3.7771
X6.5485Y-4.2244
X6.9202Y-3.8645
T2
X4.7192Y-2.5059
X4.7192Y-2.6059
X4.8192Y-2.5059
X4.8192Y-2.6059
X4.9192Y-2.5059
X4.9192Y-2.6059
X4.9311Y-4.5154
X5.0192Y-2.5059
X5.0192Y-2.6059
X5.0311Y-3.8154
X5.0311Y-4.5154
X5.1192Y-2.5059
X5.1192Y-2.6059
X5.1311Y-3.8154
X5.1311Y-4.5154
X5.2192Y-2.5059
X5.2192Y-2.6059
X5.2311Y-3.8154
X5.2311Y-4.5154
X5.3192Y-2.5059
X5.3192Y-2.6059
X5.3311Y-3.8154
X5.3311Y-4.5154
X5.4192Y-2.5059
X5.4192Y-2.6059
X5.4311Y-4.5154
X5.5192Y-2.5059
X5.5192Y-2.6059
X5.6192Y-2.5059
X5.6192Y-2.6059
X5.7192Y-2.5059
X5.7192Y-2.6059
X5.8192Y-2.5059
X5.8192Y-2.6059
X5.9192Y-2.5059
X5.9192Y-2.6059
X6.0192Y-2.5059
X6.0192Y-2.6059
X6.1192Y-2.5059
X6.1192Y-2.6059
X6.2192Y-2.5059
X6.2192Y-2.6059
X6.3192Y-2.5059
X6.3192Y-2.6059
X6.4192Y-2.5059
X6.4192Y-2.6059
X6.5192Y-2.5059
X6.5192Y-2.6059
X6.6192Y-2.5059
X6.6192Y-2.6059
X6.7846Y-4.2059
X6.7846Y-4.3059
X6.8846Y-4.2059
X6.8846Y-4.3059
T3
X4.7681Y-3.8704
X4.7681Y-4.4604
X5.5941Y-3.8704
X5.5941Y-4.4604
T4
X4.5275Y-2.5559
X4.5275Y-4.485
X6.8109Y-2.5559
X6.8109Y-4.485
T0
M30
