G04 #@! TF.FileFunction,Soldermask,Bot*
%FSLAX46Y46*%
G04 Gerber Fmt 4.6, Leading zero omitted, Abs format (unit mm)*
G04 Created by KiCad (PCBNEW 4.0.4+e1-6308~48~ubuntu15.10.1-stable) date Sun Apr 23 18:13:47 2017*
%MOMM*%
%LPD*%
G01*
G04 APERTURE LIST*
%ADD10C,0.100000*%
%ADD11C,6.200000*%
%ADD12R,1.924000X1.924000*%
%ADD13C,1.924000*%
%ADD14R,2.127200X2.127200*%
%ADD15O,2.127200X2.127200*%
%ADD16R,2.900000X5.500000*%
%ADD17C,10.600000*%
%ADD18C,4.210000*%
G04 APERTURE END LIST*
D10*
D11*
X114998000Y-113919000D03*
X114998000Y-64919000D03*
X172998000Y-64919000D03*
X172998000Y-113919000D03*
D12*
X172330000Y-109370000D03*
D13*
X172330000Y-106830000D03*
X174870000Y-109370000D03*
X174870000Y-106830000D03*
D14*
X119868000Y-66189000D03*
D15*
X119868000Y-63649000D03*
X122408000Y-66189000D03*
X122408000Y-63649000D03*
X124948000Y-66189000D03*
X124948000Y-63649000D03*
X127488000Y-66189000D03*
X127488000Y-63649000D03*
X130028000Y-66189000D03*
X130028000Y-63649000D03*
X132568000Y-66189000D03*
X132568000Y-63649000D03*
X135108000Y-66189000D03*
X135108000Y-63649000D03*
X137648000Y-66189000D03*
X137648000Y-63649000D03*
X140188000Y-66189000D03*
X140188000Y-63649000D03*
X142728000Y-66189000D03*
X142728000Y-63649000D03*
X145268000Y-66189000D03*
X145268000Y-63649000D03*
X147808000Y-66189000D03*
X147808000Y-63649000D03*
X150348000Y-66189000D03*
X150348000Y-63649000D03*
X152888000Y-66189000D03*
X152888000Y-63649000D03*
X155428000Y-66189000D03*
X155428000Y-63649000D03*
X157968000Y-66189000D03*
X157968000Y-63649000D03*
X160508000Y-66189000D03*
X160508000Y-63649000D03*
X163048000Y-66189000D03*
X163048000Y-63649000D03*
X165588000Y-66189000D03*
X165588000Y-63649000D03*
X168128000Y-66189000D03*
X168128000Y-63649000D03*
D16*
X119750000Y-106400000D03*
X135050000Y-106400000D03*
D17*
X127400000Y-106400000D03*
D13*
X132870000Y-96910000D03*
X135410000Y-96910000D03*
X130330000Y-96910000D03*
X127790000Y-96910000D03*
X132870000Y-114690000D03*
X135410000Y-114690000D03*
X137950000Y-114690000D03*
X130330000Y-114690000D03*
X127790000Y-114690000D03*
X125250000Y-114690000D03*
D18*
X142090200Y-98307000D03*
X142090200Y-113293000D03*
X121109800Y-98307000D03*
X121109800Y-113293000D03*
M02*
